<svg xmlns="http://www.w3.org/2000/svg" width="25" height="25"><defs><clipPath id="a"><path d="M0 0h25v25H0z"/></clipPath></defs><g data-name="Group 2356" stroke="#00ac41" clip-path="url(#a)"><g data-name="Group 2342" stroke-width="1.5"><g data-name="Rectangle 2720" fill="none"><path d="M5 5h15a2 2 0 012 2v12H3V7a2 2 0 012-2z" stroke="none"/><path d="M5 5.75h15A1.25 1.25 0 0121.25 7v10.5a.75.75 0 01-.75.75h-16a.75.75 0 01-.75-.75V7A1.25 1.25 0 015 5.75z"/></g><g data-name="Rectangle 2721" fill="#fff"><path d="M0 17h25v1a3 3 0 01-3 3H3a3 3 0 01-3-3v-1z" stroke="none"/><path d="M1.375 17.75h22.25a.625.625 0 01.625.625h0a1.875 1.875 0 01-1.875 1.875H2.625A1.875 1.875 0 01.75 18.375h0a.625.625 0 01.625-.625z" fill="none"/></g></g><text data-name="&lt;/&gt;" transform="translate(7 15)" fill="#00ac41" stroke-width=".5" font-size="8" font-family="Lato-Bold, Lato" font-weight="700" letter-spacing="-.05em"><tspan x="0" y="0">&lt;/&gt;</tspan></text></g></svg>