<svg xmlns="http://www.w3.org/2000/svg" width="25" height="25"><defs><clipPath id="a"><path d="M0 0h25v25H0z"/></clipPath></defs><g clip-path="url(#a)"><g transform="translate(-1 -1.293)"><path data-name="Path 9697" d="M17.294 7.638a4.361 4.361 0 00-6.168 0m9.251-3.083a8.722 8.722 0 00-12.334 0" fill="none" stroke="#00ac41" stroke-linecap="round" stroke-linejoin="round" stroke-miterlimit="10" stroke-width="1.5"/><path data-name="Path 9698" d="M2 8.105a6.977 6.977 0 016.977 6.977v.872l1.744 3.925-1.744.872v1.308a2.617 2.617 0 01-2.617 2.617H3.744v2.617M26.421 8.105a6.977 6.977 0 00-6.977 6.977v.872L17.7 19.879l1.744.872v1.308a2.617 2.617 0 002.617 2.617h2.617v2.617" fill="none" stroke="#00ac41" stroke-linecap="round" stroke-linejoin="round" stroke-miterlimit="10" stroke-width="1.5"/><circle data-name="Ellipse 867" cx="1.277" cy="1.277" r="1.277" transform="translate(12.729 10.515)" fill="#00ac41"/></g></g></svg>