<svg xmlns="http://www.w3.org/2000/svg" width="316.697" height="321.549"><defs><filter id="a" x="73.863" y="145.272" width="242.833" height="176.277" filterUnits="userSpaceOnUse"><feOffset dx="2"/><feGaussianBlur stdDeviation="2" result="blur"/><feFlood flood-color="#8b8b8c" flood-opacity=".8"/><feComposite operator="in" in2="blur"/><feComposite in="SourceGraphic"/></filter><filter id="b" x="65.047" y="0" width="190.172" height="118.52" filterUnits="userSpaceOnUse"><feOffset dx="2"/><feGaussianBlur stdDeviation="2" result="blur-2"/><feFlood flood-color="#8b8b8c" flood-opacity=".8"/><feComposite operator="in" in2="blur-2"/><feComposite in="SourceGraphic"/></filter><linearGradient id="c" x1=".146" y1=".854" x2=".854" y2=".146" gradientUnits="objectBoundingBox"><stop offset="0" stop-color="#05ac4b"/><stop offset=".131" stop-color="#06aa53"/><stop offset=".345" stop-color="#09a86c"/><stop offset=".616" stop-color="#0fa393"/><stop offset=".928" stop-color="#179dca"/><stop offset="1" stop-color="#199cd8"/></linearGradient></defs><g data-name="Group 345" transform="translate(-1801.612 -2211.228)"><path data-name="Line 71" fill="none" stroke="#173a64" stroke-miterlimit="10" stroke-width="1.5" d="M1889 2504.5l38-78"/><circle data-name="Ellipse 141" cx="149" cy="149" r="149" transform="translate(1802.362 2221.5)" fill="none" stroke="#173a64" stroke-miterlimit="10" stroke-width="1.5"/><path data-name="Line 72" fill="none" stroke="#b9bfc7" stroke-miterlimit="10" d="M2100 2368.5h-91"/><g transform="translate(1801.61 2211.23)" filter="url(#a)"><path data-name="Path 960" d="M121.39 211.27c36 15.636 65.321-7.869 67.161-9.511.063-.056.119-.11.178-.169 26.8-27.119 18.661-49.32 18.661-49.32v-1l97.681 1a3.617 3.617 0 013.627 3.588c.071 18.328-11 101.4-84.123 139.279-70.725 36.634-130.089 14.1-144.6 7.473a3.62 3.62 0 01-1.715-4.942l43.007-84.4" fill="#003865"/></g><path data-name="Line 73" fill="none" stroke="#173a64" stroke-miterlimit="10" stroke-width="1.5" d="M1922 2317.5l-46-75"/><path data-name="Line 74" fill="none" stroke="#868d95" stroke-miterlimit="10" stroke-width="1.5" d="M1985 2320.5l58-68"/><path data-name="Line 75" fill="none" stroke="#b9bfc7" stroke-miterlimit="10" d="M1889.362 2368.5H1802.5"/><path data-name="Path 961" d="M2067 2366.5c0 21.59-5.536 45.8-15.809 63.113" fill="none" stroke="#05ac4b" stroke-miterlimit="10" stroke-width="4"/><g data-name="Group 342" fill="none" stroke="#05ac4b" stroke-miterlimit="10" stroke-width="4"><path data-name="Path 962" d="M2051.191 2429.613a116.177 116.177 0 01-133.812 51.83"/><path data-name="Path 963" d="M1978.374 2483.338a116.82 116.82 0 01-60.995-1.895s-15.762-6.134-17.379-6.943"/></g><text transform="translate(1910.07 2490.267)" fill="#fff" font-size="12" font-family="Lato-Bold, Lato" font-weight="700"><tspan x="0" y="12">L1</tspan></text><text transform="translate(1976.07 2493.267)" fill="#fff" font-size="12" font-family="Lato-Bold, Lato" font-weight="700"><tspan x="0" y="12">L2</tspan></text><text transform="translate(2028.07 2466.267)" fill="#fff" font-size="12" font-family="Lato-Bold, Lato" font-weight="700"><tspan x="0" y="12">L3</tspan></text><text transform="translate(2060.07 2425.267)" fill="#fff" font-size="12" font-family="Lato-Bold, Lato" font-weight="700"><tspan x="0" y="12">L4</tspan></text><text transform="translate(2076.07 2374.267)" fill="#fff" font-size="12" font-family="Lato-Bold, Lato" font-weight="700"><tspan x="0" y="12">L5</tspan></text><circle data-name="Ellipse 142" cx="5" cy="5" r="5" transform="translate(1894 2468.5)" fill="#05ac4b"/><circle data-name="Ellipse 143" cx="5" cy="5" r="5" transform="translate(2062 2359.5)" fill="#05ac4b"/><text transform="translate(1965.34 2435.056)" fill="#fff" font-size="12.644" font-family="Helvetica"><tspan x="0" y="10">Aptitude</tspan></text><text data-name="Technical Non-IT" transform="translate(2013.702 2307.056)" fill="#002060" font-size="12.644" font-family="Helvetica"><tspan x="3.293" y="10">Technical </tspan><tspan x="10.328" y="25.173">Non-IT</tspan></text><text transform="translate(1831.34 2409.056)" fill="#002060" font-size="12.644" font-family="Helvetica"><tspan x="0" y="10">Behavior</tspan></text><text transform="translate(1826.34 2316.056)" fill="#002060" font-size="12.644" font-family="Helvetica"><tspan x="0" y="10">Personality</tspan></text><g transform="translate(1801.61 2211.23)" filter="url(#b)"><path data-name="Path 964" d="M69.642 31.425l45.092 75.335a4.177 4.177 0 005.568 1.527c8.405-4.5 31.685-13.441 62.534 3.7a4.178 4.178 0 005.208-.925l58.173-68.042a4.17 4.17 0 00-.747-6.11c-16.641-11.809-88.319-56.046-174.171-11.34a4.184 4.184 0 00-1.657 5.855z" fill="#003865"/></g><text data-name="Technical IT" transform="translate(1926.702 2253.056)" fill="#fff" font-size="12.644" font-family="Helvetica"><tspan x="3.293" y="10">Technical </tspan><tspan x="24.031" y="25.173">IT</tspan></text><circle data-name="Ellipse 144" cx="60" cy="60" r="60" transform="translate(1890.362 2310.5)" stroke="#707070" stroke-miterlimit="10" fill="url(#c)"/><g data-name="Group 344"><g data-name="Group 343"><path data-name="Path 965" d="M1963.116 2361.4a12.236 12.236 0 00-10.389 5.7 12.062 12.062 0 011.909 6.527v8.622h20.843v-8.622a12.294 12.294 0 00-12.365-12.223" fill="#006a39"/><path data-name="Path 966" d="M1963.163 2336.76a12.307 12.307 0 00-10.422 5.75 12.329 12.329 0 010 13.135 12.318 12.318 0 1010.422-18.885" fill="#006a39"/><path data-name="Path 967" d="M1942.271 2361.4a12.214 12.214 0 00-12.271 12.223v8.622h20.846v-8.622a12.177 12.177 0 011.881-6.527 12.389 12.389 0 00-10.456-5.7" fill="#fff"/><path data-name="Path 968" d="M1952.727 2367.091a12.177 12.177 0 00-1.881 6.527v8.622h3.79v-8.622a12.062 12.062 0 00-1.909-6.527" fill="#05ac4b"/><path data-name="Path 969" d="M1942.318 2336.76a12.318 12.318 0 1010.423 18.885 12.328 12.328 0 010-13.135 12.311 12.311 0 00-10.423-5.75" fill="#fff"/><path data-name="Path 970" d="M1952.741 2342.51a12.328 12.328 0 000 13.135 12.329 12.329 0 000-13.135" fill="#05ac4b"/></g><text data-name="JOB ROLE" transform="translate(1952 2401.093)" fill="#fff" font-size="12.644" font-family="Helvetica"><tspan x="-31.267" y="0">JOB ROLE</tspan></text></g></g></svg>