<svg data-name="Group 2390" xmlns="http://www.w3.org/2000/svg" width="223.259" height="242.547"><ellipse data-name="Ellipse 877" cx="111.63" cy="11.809" rx="111.63" ry="11.809" transform="translate(0 218.93)" fill="#0a2a43" opacity=".05"/><g data-name="Group 2389"><path data-name="Path 9722" d="M136.592 192.307a71.433 71.433 0 01-8.208-.817 19.8 19.8 0 001.455-4.246c2.7-8.762 6.948-16.792 11.614-24.625a305.937 305.937 0 0121.42-30.649c1.13-1.428 2.2-2.906 3.332-4.329a7.132 7.132 0 00.586-.755c3-3.888 6.116-7.676 9.255-11.449 4.4-5.034 8.724-10.135 13.248-15.064 3.137-3.417 6.408-6.708 9.47-10.194a40.435 40.435 0 018.205 18.338 106.434 106.434 0 011.978 16.177c.4 13.2-1.951 25.774-8.51 37.346a51.774 51.774 0 01-20.325 20.037c-7.73 4.289-16.053 6.7-24.668 8.346-3.16.605-6.348 1.017-9.508 1.606a2.914 2.914 0 01-1.658.558 52.668 52.668 0 01-6.684.1 1.589 1.589 0 01-1.002-.38z" fill="#afcbdf"/><path data-name="Path 9723" d="M91.666 64.733c2.748-3.835 5.457-7.7 8.261-11.493 1.372-1.858 2.9-3.6 4.394-5.369a7.03 7.03 0 013.4-2.206c3.634-1.064 6.551-3.476 9.9-5.067 2.7-1.286 5.052-3.267 7.99-4.1a.521.521 0 01.433.283 21.653 21.653 0 004.685 6.844 2.8 2.8 0 01-.563 1.775c-.765 1.337-1.638 2.606-2.442 3.919-.815 1.33-1.1 1.347-2.206.174a37.274 37.274 0 01-4.217-5.29 20.587 20.587 0 01-1.251-2.414 14.71 14.71 0 001.24 2.4 39.17 39.17 0 004.669 5.785c.711.759 1.066.646 1.585-.218.411-.683.518-1.7 1.563-1.884a1.365 1.365 0 01.93.9 18.042 18.042 0 01-.1 4.346c-.181 7.319-.3 14.641.2 21.956.153 2.224-.135 4.462.229 6.684.257 1.564.253 1.561 1.807.992 1.97-.722 3.822-1.72 5.786-2.444.665-.1.789-.635.941-1.163a5.953 5.953 0 01.481-1.321c-.4.207-.443 1.365-1.373.645a14.92 14.92 0 01-.83-4c-1.161-7.575-2.734-15.063-4.625-22.488a12.743 12.743 0 01-.532-2.813 2.162 2.162 0 00-.119-2.512 14.187 14.187 0 01-1.031-2.081.954.954 0 01.21-1.091c4.019-1.986 7.039-5.115 9.8-8.545.277-.345.466-.8.975-.9a17.166 17.166 0 016.272 1.621c.205 1.878-.779 3.347-1.768 4.751a50.394 50.394 0 01-9.819 9.839 1.972 1.972 0 00-.755.8 16.38 16.38 0 002.1-1.639c.663-.7 1.455-1.245 2.149-1.9a53.521 53.521 0 006.085-6.647 11.371 11.371 0 002.273-5.18c3.941.588 7.79 1.6 11.647 2.564a25.369 25.369 0 018.676 3.729 6.634 6.634 0 012.6 5.027c.389 3.273.951 6.517 1.428 9.773a2.118 2.118 0 00-.421 1.936c.457 3.788-1.042 6.944-3.051 9.974-2.572 3.881-5.187 7.731-8 11.435a4.773 4.773 0 00-.907 3.7 96.438 96.438 0 01.454 19.374 9.994 9.994 0 01-2.616 5.739c-4.03 4.656-8.062 9.312-11.621 14.353-.607.859-1.138 1.762-1.69 2.655-.286.463-.532.968-1.1 1.172a13.54 13.54 0 01-4.815-.067c-.559-.617.047-.982.34-1.364.8-1.045 1.611-2.081 2.388-3.147a8.944 8.944 0 001.523-6.856c-.445-3.1-.962-6.192-1.372-9.3a2.3 2.3 0 01.065-1.337 4.561 4.561 0 012.346-1 32.588 32.588 0 009.979-4.68 7.446 7.446 0 003.362-7.3c-.225-1.9-.425-3.8-.814-5.872a35.827 35.827 0 00-2.371 2.84c-1.559 1.965-3.2 3.862-4.859 5.737a10.3 10.3 0 01-5.59 3.235c-1.157.26-2.338.383-3.49.676-3.052.459-6.117.8-9.172 1.212-3.694.454-7.4.778-11.094 1.276-1.357.183-1.357.2-.818 1.378.7 1.532 1.63 2.942 2.366 4.454a1.551 1.551 0 001.683.868c2.09-.1 4.159-.4 6.228-.69a3.617 3.617 0 011.752.009c.544.261.591.77.615 1.275.121 2.591.539 5.152.792 7.73a14.958 14.958 0 004.407 9.013c.452.475 1.45.826.846 1.839-1.632.493-3.324.2-4.986.361a81.944 81.944 0 01-8.387.207 6.147 6.147 0 01-2.606-1.452 32.991 32.991 0 01-1.939-5.969c-1.1-3.859-2.143-7.734-2.963-11.663-.118-.568-.349-1.16.1-1.7.246-.3.8-.175.935-.676-.38-.52-1.14-.189-1.529-.676a5.664 5.664 0 01-.725-2.455 1.26 1.26 0 00-1.623-1.172c-2.959.419-5.952.567-8.9 1.1-1.131-.287-2.254.361-3.386.03-.976-.845-.9-2.073-1.158-3.179a6.319 6.319 0 00-.182-2.02 18.17 18.17 0 01-.115-3.2c.437-.746 1.244-.875 1.959-1.127 3.263-1.151 6.548-2.239 9.8-3.411.669-.241 1.32-.458 1.169-1.387-.76-4.67-1.023-9.4-1.68-14.08.013-.159-.118-.369.151-.443-.12-.061-.2.01-.279.084-4.052 3.682-8.492 6.873-12.865 10.148-.545.407-1.074 1.09-1.927.577a3.913 3.913 0 01-.708-1.757q-2.282-8.3-4.526-16.616c-.156-.592-.485-1.209-.053-1.833z" fill="#cad0d9"/><path data-name="Path 9724" d="M95.211 113.039c8.143 3.7 16.185 7.628 24.325 11.34a8.719 8.719 0 012.791 1.665 9.3 9.3 0 002.218 1.106c-.092.715-.718.594-1.157.693a32.709 32.709 0 01-5.167.441c-7.131.465-14.256 1.05-21.391 1.468-2.5.147-4.99.415-7.492.527-1.24.056-1.37.239-.942 1.418 1.167 3.212 2.491 6.367 3.595 9.6 1.97 5.778 4.158 11.489 5.285 17.523.352 1.884.531 3.791.825 5.682.627 4.491.466 9.031.847 13.538a3.1 3.1 0 01-.392 2.474c-.186 6.043-.448 12.084-.516 18.128-.026 2.324-.39 4.134-3.059 4.545a1.486 1.486 0 01-.9.572c-3.033.938-6.083 1.819-9.1 2.8a.94.94 0 01-.664 0 7.488 7.488 0 00-3.277.8c-1.166.425-1.648.224-1.942-1.049-.952-4.118-2.027-8.208-3.055-12.309a2.235 2.235 0 01-.774-1.544c-3.535-14.135-7.177-28.244-10.7-42.383-.2-.816-.022-1.622-.218-2.413l-7.528-30.037a5.594 5.594 0 013.557-7.049c1.471-.611 2.963-1.173 4.413-1.833a29.534 29.534 0 0116.244-1.44c6.027 1.126 12.237 4.849 14.174 5.737z" fill="#027e31"/><path data-name="Path 9725" d="M90.561 63.975l10.3 38.013c.307 1.131.6 2.264.936 3.515H47.134c-.592 0-1.185.019-1.777.029q-2.6-9.041-5.191-18.082c-2.118-7.436-4.208-14.881-6.336-22.314-.218-.761-.424-1.234.738-1.231q27.792.044 55.586.026a3.883 3.883 0 01.407.044z" fill="#003865"/><path data-name="Path 9726" d="M64.354 147.666l5.72 22.7q2.981 11.823 5.968 23.644c-1.724 2.279-3.128 4.772-4.848 7.06a152.335 152.335 0 01-15.953 17.924 3.053 3.053 0 01-2.442.957c-1.179-.074-2.367 0-3.552.013a2.549 2.549 0 01-1.807.423c-3.621.009-7.241.026-10.861-.015-.645-.006-1.483.259-1.791-.7 1.622-3.214 2.834-6.6 4.2-9.923q8.469-20.519 16.861-41.068l8.088-19.714c.176-.424.282-.869.417-1.301z" fill="#00ac41"/><path data-name="Path 9727" d="M144.016 126.846a64.031 64.031 0 017.821-10.954c2.393-2.906 4.883-5.736 7.249-8.667 1.417-1.756 1.479-3.992 1.584-6.094.159-3.184.139-6.386.009-9.573-.109-2.664-.466-5.318-.745-7.974a4.508 4.508 0 01.835-3.429c3.356-4.467 6.55-9.047 9.494-13.809 1.568-2.536 1.75-5.187 1.695-7.981-.011-.624-.282-1.462.788-1.583.36 4.7.728 9.393 1.072 14.091.136 1.854.324 3.714.282 5.567-.027 1.148.307 1.751 1.42 1.925a3.091 3.091 0 00-.673 2.415c.386 4.849.636 9.705.861 14.564.264 5.72.643 11.434.763 17.16a17.862 17.862 0 01-.161 3.121l-9.3 11.5c-1.059.672-2.323.161-3.424.6-3.174.347-6.333-.165-9.5-.249-2.714-.072-5.43-.13-8.146-.192-.664-.008-1.376.111-1.924-.438z" fill="#aab2bb"/><path data-name="Path 9728" d="M136.595 192.308a87.608 87.608 0 009.345-.277c0 11.314.013 22.629-.037 33.944-.005 1.24.486 1.384 1.529 1.382q16.839-.045 33.677-.013a3.311 3.311 0 013.434 4.336 3.23 3.23 0 01-2.793 2.235c-.182.008-.365 0-.547 0-26.148 0-52.3-.034-78.444.058a3.334 3.334 0 01-2.942-5.072c.765-1.365 2.041-1.559 3.4-1.56q13.894-.012 27.79 0c1.46 0 2.923-.05 4.38.018.957.044 1.255-.282 1.247-1.242-.043-4.653-.017-9.306-.02-13.96q-.008-9.926-.019-19.849z" fill="#cad0d9"/><path data-name="Path 9729" d="M98.556 180.52c-.188-4.49-.359-8.98-.575-13.47a14.19 14.19 0 01-.234-2.7 4.847 4.847 0 013.017-.667c6.611.108 13.218-.2 19.818-.385 5.689-.163 11.395.142 17.073-.448.862-.089 1.715-.232 2.575-.336.538-.065 1.094-.209 1.555.238-5.26 8.752-9.88 17.794-12.518 27.728-.141.53-.24.971-.879 1.013-9.577-1.318-18.81-3.669-27.037-9.027-.951-.621-1.87-1.296-2.795-1.946z" fill="#6f8fb8"/><path data-name="Path 9730" d="M130.578 43.684a16.187 16.187 0 01-4.973-7.181c-.138-.43-.285-.857-.414-1.29-.116-.394-.222-.591-.749-.411a4.306 4.306 0 01-3.967-.9 42.707 42.707 0 01-11.688-12.579 14.994 14.994 0 01-1.048-2.792c3.671-2.356 6.9-5.488 11.473-6.23a14.273 14.273 0 0110.706 2.6 11.223 11.223 0 002.428 1.713 43.584 43.584 0 006.287 13.4 45.18 45.18 0 003.219 4.033c-2.887 3.989-6.1 7.615-10.73 9.668a.607.607 0 01-.544-.031z" fill="#c8735f"/><path data-name="Path 9731" d="M176.309 115.626a.839.839 0 01-.251-.743c.039-3.225-.106-6.443-.275-9.664-.316-6.066-.552-12.136-.858-18.2-.126-2.486-.33-4.967-.535-7.448-.072-.875.226-1.294 1.128-1.2 9.174 1.135 17.339 4.258 23.25 11.815a2.147 2.147 0 01-.749 1.407c-3.242 3.433-6.547 6.811-9.71 10.317-3.553 3.937-6.979 7.991-10.462 11.992-.508.575-1.027 1.147-1.538 1.724z" fill="#6f8fb8"/><path data-name="Path 9732" d="M132.351 16.609c-.384 1.05-.746.048-.9-.088a16.229 16.229 0 00-5.965-3.475c-4.935-1.457-9.329-.169-13.313 2.857a16.883 16.883 0 01-4.426 2.627c-4.126 1.153-6.72-1.183-6.564-5.914a17.071 17.071 0 015.161-11.273c2.139 2.391 3.93 2.8 6.882 1.478.992-.444 1.911-1.046 2.886-1.534 5.279-2.648 9.992-1.158 12.8 4.043a30.228 30.228 0 013.439 11.279z" fill="#191847"/><path data-name="Path 9733" d="M84.316 206.563c2.947-1.394 6.176-1.938 9.222-3.032a12.446 12.446 0 011.443-.338c.594 1.374 1.769 2.824 1.5 4.148-.263 1.28-2.064 1.9-3.2 2.8q-6.406 5.016-12.847 9.985a2.9 2.9 0 01-1.345.795 17.718 17.718 0 012.349-10.211c.815-1.485 1.922-2.762 2.878-4.147z" fill="#003865"/><path data-name="Path 9734" d="M34.788 219.666c.4.452.935.254 1.408.256 4.35.025 8.7.027 13.051.036-.523 2.023-1.07 4.039-1.555 6.072-.14.583-.361.849-.988.848-7.1-.013-14.207-.008-21.691-.008a17.765 17.765 0 019.775-7.204z" fill="#003865"/><path data-name="Path 9735" d="M148.389 35.688c.39 1.761-.5 3.183-1.4 4.493-2.956 4.3-6.812 7.757-10.783 11.087-.285.238-.678.707-1.032.259-.419-.529.215-.826.524-1.057a61.947 61.947 0 007.78-7.012 22.107 22.107 0 003.958-5.5c.371-.759.163-1.628.69-2.3.089.014.175.023.263.03z" fill="#abb2bb"/><path data-name="Path 9736" d="M141.784 162.751c-5.774 1.06-11.618.586-17.426.867-4.194.2-8.389-.033-12.567.245-3.871.258-7.74.168-11.61.25a14.7 14.7 0 01-2.435.236c-.417-2.459-.748-4.935-1.269-7.372a127.166 127.166 0 00-4.7-15.108q-1.86-5.35-3.982-10.607c-.483-1.2.082-1.313.934-1.367 1.271-.081 2.54-.133 3.81-.238 4.575-.38 9.165-.576 13.745-.9 5.935-.421 11.867-.9 17.8-1.363.159-.012.307-.155.46-.238.927.559 1.855 0 2.78-.019 3.655-.067 7.309-.2 10.964-.3a.358.358 0 01.518.011h5.208c4.856-.134 9.7.209 14.552.341 1.712.046 3.429.24 5.151.218a4.168 4.168 0 012.728.287c-1.558 2.454-3.444 4.668-5.222 6.956q-5.639 7.264-10.867 14.823c-3.006 4.33-5.81 8.79-8.572 13.278z" fill="#00ac41"/><path data-name="Path 9737" d="M166.445 127.692l-2.728-.287c1.057-.561 2.2-.136 3.29-.275a.966.966 0 01-.562.562z" fill="#bcc7d2"/><path data-name="Path 9738" d="M122.327 126.044c-3.176-1.463-6.361-2.906-9.526-4.394-5.39-2.533-10.766-5.1-16.151-7.639-.443-.209-.914-.358-1.372-.534a71.255 71.255 0 014.9-6.019 2.547 2.547 0 01.784-.534h16.489a4.632 4.632 0 00.349 2.635c1.345 5.542 2.709 11.078 4.527 16.485z" fill="#6f8fb8"/><path data-name="Path 9739" d="M138.806 126.844l-.518-.011c-.9-.959-1.84-1.876-2.675-2.884-2.261-2.725-3.09-5.974-3.385-9.425-.2-2.381-.521-4.751-.787-7.126-.792-1.256-.359-2.716-.66-4.06-.194-.864-.034-1.792-.148-2.687a1.023 1.023 0 01.5-1.152l9.667-1.256a.705.705 0 01.756.627 45.471 45.471 0 01.761 5.6.826.826 0 01-.2.49 69.6 69.6 0 001.165 8.319c1.354 5.22-.384 9.313-3.968 12.929a7.169 7.169 0 00-.508.636z" fill="#009de0"/><path data-name="Path 9740" d="M138.476 80.563c-2.479 1.022-4.969 2.018-7.432 3.08-.8.344-1 .166-1.043-.664-.271-5.55-.42-11.1-.573-16.656-.145-5.193-.013-10.372.327-15.552.048-.723-.012-1.455-.022-2.184.472-.845 1.244-.73 1.994-.588.43.082.751.321.539.852 2.422 9.853 4.494 19.778 6.022 29.812a1.484 1.484 0 01.188 1.9z" fill="#009de0"/><path data-name="Path 9741" d="M99.665 93.881a13.7 13.7 0 01-1.126-4.243 26.467 26.467 0 013.86-4.386c3-3.187 6.125-6.251 8.5-9.966.261-.408.5-.89 1.077-.981 1.027 1.2.612 2.723.729 4.053.306 3.479.789 6.931 1.264 10.383.143 1.037-.186 1.224-.97 1.495-4.079 1.409-8.142 2.864-12.21 4.3-.645.248-.852-.26-1.124-.655z" fill="#fff"/><path data-name="Path 9742" d="M142.113 104.96c-.28-1.841-.566-3.682-.836-5.525-.064-.443.027-.934-.479-1.193 2.753-.411 5.558-.812 7.642-2.857 1.649-1.617 3.1-3.441 4.592-5.211 1.312-1.556 2.561-3.165 3.992-4.94.461 3.219 1.19 6.215.908 9.28a6.894 6.894 0 01-2.957 4.757 32.678 32.678 0 01-12.862 5.689z" fill="#aab2bb"/><path data-name="Path 9743" d="M131.13 99.499a17.537 17.537 0 00.114 4.266c.1 1.211.189 2.418.2 3.632-2.893.189-5.733.863-8.647.89-.523 0-.818-.011-1.073-.512q-1.513-2.981-3.1-5.923c-.435-.806-.175-.94.65-1.023 3.951-.4 7.902-.879 11.856-1.33z" fill="#aab2bb"/><path data-name="Path 9744" d="M111.979 74.305a65.35 65.35 0 01-9.252 11.058 52.567 52.567 0 01-4.188 4.275 27.589 27.589 0 01-1.344-4.66 39.028 39.028 0 005.948-4.23c2.815-2.124 5.522-4.391 8.289-6.58.129-.103.659-1.017.547.137z" fill="#aab2bb"/><path data-name="Path 9745" d="M116.92 105.475q-6.628.014-13.256.024c-.348 0-.743.107-.992-.277.715-1.03 1.343-2.156 2.71-2.473 2.327-.878 4.821-.649 7.216-1.077.176-.031.363-.005.544-.02 2.947-.239 2.944-.239 3.5 2.773.067.355.184.701.278 1.05z" fill="#6f8fb8"/><path data-name="Path 9746" d="M132.266 48.85c-.737-1.123-1.649-.565-2.533-.264l-.775-.589a4.981 4.981 0 012.172-3.582c.53 1.043 1.01 2.117 1.608 3.119.428.719.201 1.062-.472 1.316z" fill="#bad3e4"/><path data-name="Path 9747" d="M131.129 44.414a11.98 11.98 0 00-2.172 3.582c-.537.883-1.079 1.764-1.609 2.651-.19.317-.364.754-.782.3-1.947-2.112-4.081-4.082-5.292-6.77 1.249 1.078 1.925 2.626 3.089 3.774.519.513 1.056 1.012 1.54 1.556.58.654.921.8 1.447-.15 1.049-1.9 2.439-3.613 3.226-5.67l.544.025c-.21.233-.11.469.009.702z" fill="#adb4bd"/><path data-name="Path 9748" d="M105.381 102.75l-2.71 2.473a8.7 8.7 0 01-.579-2.454c1.098.212 2.189-.755 3.289-.019z" fill="#fbfcfd"/><path data-name="Path 9749" d="M99.665 93.884l1.126.659a12.733 12.733 0 01.263 3.252c.077.265.227.563-.255.585z" fill="#c37664"/><path data-name="Path 9750" d="M138.477 80.563l-.188-1.9 1.422-1.731c-.373 1.237-.143 2.668-1.234 3.631z" fill="#adb2bc"/><path data-name="Path 9751" d="M121.276 44.178a4.015 4.015 0 01-1.251-2.447 7.5 7.5 0 011.255 2.443z" fill="#adb4bd"/><path data-name="Path 9752" d="M100.8 98.377l.255-.585c.389.611.173 1.291.226 1.94-.39-.371-.275-.92-.481-1.355z" fill="#c38a7e"/><path data-name="Path 9753" d="M100.964 106.927c-1.7 2.089-3.394 4.18-5.106 6.258-.126.153-.385.2-.58.3-4.736-2.161-9.343-4.6-14.37-6.553z" fill="#fdfeff"/><path data-name="Path 9754" d="M68.474 85.679a2.332 2.332 0 01-2.3 2.621 4.229 4.229 0 01-4.092-4.069 2.274 2.274 0 012.305-2.592 4.106 4.106 0 014.087 4.04z" fill="#fefefe"/></g><path data-name="Path 9755" d="M90.533 64.006l7.306 27.785c1.083 4.127 2.129 8.266 3.252 12.381.283 1.037.25 1.448-.965 1.446-17.6-.04-37.277-.034-54.878-.038-.247 1.155.2 1.449 1.3 1.447 17.938-.034 37.948-.025 55.885-.023.567 0 1.134.024 1.7.036 4.1-.012 8.194-.011 12.291-.055.5-.005 1.355.414 1.322-.724-.03-1.013-.8-.65-1.276-.651-4.271-.016-8.543.015-12.815.005-.445 0-.965.237-1.337-.254-1.572-5.906-3.157-11.809-4.714-17.72q-2.975-11.3-5.909-22.617c-.167-.654-.298-1.272-1.162-1.018z" fill="#008cd0"/></svg>