<svg xmlns="http://www.w3.org/2000/svg" width="1316" height="658" viewBox="0 0 1316 658" fill="none"><g clip-path="url(#clip0_633_7005)"><rect width="658" height="67.0061" transform="matrix(-1 0 0 1 1316 0)" fill="white"></rect><rect x="-0.670061" y="0.670061" width="65.666" height="65.666" transform="matrix(-1 0 0 1 1314.66 0)" stroke="#EEEEEE" stroke-width="1.34012"></rect><rect x="-0.670061" y="0.670061" width="65.666" height="65.666" transform="matrix(-1 0 0 1 1248.99 0)" stroke="#EEEEEE" stroke-width="1.34012"></rect><rect x="-0.670061" y="0.670061" width="65.666" height="65.666" transform="matrix(-1 0 0 1 1183.33 0)" stroke="#EEEEEE" stroke-width="1.34012"></rect><rect x="-0.670061" y="0.670061" width="65.666" height="65.666" transform="matrix(-1 0 0 1 1117.66 0)" stroke="#EEEEEE" stroke-width="1.34012"></rect><rect x="-0.670061" y="0.670061" width="65.666" height="65.666" transform="matrix(-1 0 0 1 1052 0)" stroke="#EEEEEE" stroke-width="1.34012"></rect><rect x="-0.670061" y="0.670061" width="65.666" height="65.666" transform="matrix(-1 0 0 1 986.33 0)" stroke="#EEEEEE" stroke-width="1.34012"></rect><rect x="-0.670061" y="0.670061" width="65.666" height="65.666" transform="matrix(-1 0 0 1 920.664 0)" stroke="#EEEEEE" stroke-width="1.34012"></rect><rect x="-0.670061" y="0.670061" width="65.666" height="65.666" transform="matrix(-1 0 0 1 854.998 0)" stroke="#EEEEEE" stroke-width="1.34012"></rect><rect x="-0.670061" y="0.670061" width="65.666" height="65.666" transform="matrix(-1 0 0 1 789.332 0)" stroke="#EEEEEE" stroke-width="1.34012"></rect><rect x="-0.670061" y="0.670061" width="65.666" height="65.666" transform="matrix(-1 0 0 1 723.666 0)" stroke="#EEEEEE" stroke-width="1.34012"></rect><rect width="658" height="67.0061" transform="matrix(-1 0 0 1 1316 65.6679)" fill="white"></rect><rect x="-0.670061" y="0.670061" width="65.666" height="65.666" transform="matrix(-1 0 0 1 1314.66 65.6679)" stroke="#EEEEEE" stroke-width="1.34012"></rect><rect x="-0.670061" y="0.670061" width="65.666" height="65.666" transform="matrix(-1 0 0 1 1248.99 65.6678)" stroke="#EEEEEE" stroke-width="1.34012"></rect><rect x="-0.670061" y="0.670061" width="65.666" height="65.666" transform="matrix(-1 0 0 1 1183.33 65.6678)" stroke="#EEEEEE" stroke-width="1.34012"></rect><rect x="-0.670061" y="0.670061" width="65.666" height="65.666" transform="matrix(-1 0 0 1 1117.66 65.6678)" stroke="#EEEEEE" stroke-width="1.34012"></rect><rect x="-0.670061" y="0.670061" width="65.666" height="65.666" transform="matrix(-1 0 0 1 1052 65.6678)" stroke="#EEEEEE" stroke-width="1.34012"></rect><rect x="-0.670061" y="0.670061" width="65.666" height="65.666" transform="matrix(-1 0 0 1 986.33 65.6678)" stroke="#EEEEEE" stroke-width="1.34012"></rect><rect x="-0.670061" y="0.670061" width="65.666" height="65.666" transform="matrix(-1 0 0 1 920.664 65.6678)" stroke="#EEEEEE" stroke-width="1.34012"></rect><rect x="-0.670061" y="0.670061" width="65.666" height="65.666" transform="matrix(-1 0 0 1 854.998 65.6678)" stroke="#EEEEEE" stroke-width="1.34012"></rect><rect x="-0.670061" y="0.670061" width="65.666" height="65.666" transform="matrix(-1 0 0 1 789.332 65.6678)" stroke="#EEEEEE" stroke-width="1.34012"></rect><rect x="-0.670061" y="0.670061" width="65.666" height="65.666" transform="matrix(-1 0 0 1 723.666 65.6678)" stroke="#EEEEEE" stroke-width="1.34012"></rect><rect width="658" height="67.0061" transform="matrix(-1 0 0 1 1316 131.332)" fill="white"></rect><rect x="-0.670061" y="0.670061" width="65.666" height="65.666" transform="matrix(-1 0 0 1 1314.66 131.332)" stroke="#EEEEEE" stroke-width="1.34012"></rect><rect x="-0.670061" y="0.670061" width="65.666" height="65.666" transform="matrix(-1 0 0 1 1248.99 131.332)" stroke="#EEEEEE" stroke-width="1.34012"></rect><rect x="-0.670061" y="0.670061" width="65.666" height="65.666" transform="matrix(-1 0 0 1 1183.33 131.332)" stroke="#EEEEEE" stroke-width="1.34012"></rect><rect x="-0.670061" y="0.670061" width="65.666" height="65.666" transform="matrix(-1 0 0 1 1117.66 131.332)" stroke="#EEEEEE" stroke-width="1.34012"></rect><rect x="-0.670061" y="0.670061" width="65.666" height="65.666" transform="matrix(-1 0 0 1 1052 131.332)" stroke="#EEEEEE" stroke-width="1.34012"></rect><rect x="-0.670061" y="0.670061" width="65.666" height="65.666" transform="matrix(-1 0 0 1 986.33 131.332)" stroke="#EEEEEE" stroke-width="1.34012"></rect><rect x="-0.670061" y="0.670061" width="65.666" height="65.666" transform="matrix(-1 0 0 1 920.664 131.332)" stroke="#EEEEEE" stroke-width="1.34012"></rect><rect x="-0.670061" y="0.670061" width="65.666" height="65.666" transform="matrix(-1 0 0 1 854.998 131.332)" stroke="#EEEEEE" stroke-width="1.34012"></rect><rect x="-0.670061" y="0.670061" width="65.666" height="65.666" transform="matrix(-1 0 0 1 789.332 131.332)" stroke="#EEEEEE" stroke-width="1.34012"></rect><rect x="-0.670061" y="0.670061" width="65.666" height="65.666" transform="matrix(-1 0 0 1 723.666 131.332)" stroke="#EEEEEE" stroke-width="1.34012"></rect><rect width="658" height="67.0061" transform="matrix(-1 0 0 1 1316 196.997)" fill="white"></rect><rect x="-0.670061" y="0.670061" width="65.666" height="65.666" transform="matrix(-1 0 0 1 1314.66 196.997)" stroke="#EEEEEE" stroke-width="1.34012"></rect><rect x="-0.670061" y="0.670061" width="65.666" height="65.666" transform="matrix(-1 0 0 1 1248.99 196.997)" stroke="#EEEEEE" stroke-width="1.34012"></rect><rect x="-0.670061" y="0.670061" width="65.666" height="65.666" transform="matrix(-1 0 0 1 1183.33 196.997)" stroke="#EEEEEE" stroke-width="1.34012"></rect><rect x="-0.670061" y="0.670061" width="65.666" height="65.666" transform="matrix(-1 0 0 1 1117.66 196.997)" stroke="#EEEEEE" stroke-width="1.34012"></rect><rect x="-0.670061" y="0.670061" width="65.666" height="65.666" transform="matrix(-1 0 0 1 1052 196.997)" stroke="#EEEEEE" stroke-width="1.34012"></rect><rect x="-0.670061" y="0.670061" width="65.666" height="65.666" transform="matrix(-1 0 0 1 986.33 196.997)" stroke="#EEEEEE" stroke-width="1.34012"></rect><rect x="-0.670061" y="0.670061" width="65.666" height="65.666" transform="matrix(-1 0 0 1 920.664 196.997)" stroke="#EEEEEE" stroke-width="1.34012"></rect><rect x="-0.670061" y="0.670061" width="65.666" height="65.666" transform="matrix(-1 0 0 1 854.998 196.997)" stroke="#EEEEEE" stroke-width="1.34012"></rect><rect x="-0.670061" y="0.670061" width="65.666" height="65.666" transform="matrix(-1 0 0 1 789.332 196.997)" stroke="#EEEEEE" stroke-width="1.34012"></rect><rect x="-0.670061" y="0.670061" width="65.666" height="65.666" transform="matrix(-1 0 0 1 723.666 196.997)" stroke="#EEEEEE" stroke-width="1.34012"></rect><rect width="658" height="67.0061" transform="matrix(-1 0 0 1 1316 262.665)" fill="white"></rect><rect x="-0.670061" y="0.670061" width="65.666" height="65.666" transform="matrix(-1 0 0 1 1314.66 262.665)" stroke="#EEEEEE" stroke-width="1.34012"></rect><rect x="-0.670061" y="0.670061" width="65.666" height="65.666" transform="matrix(-1 0 0 1 1248.99 262.665)" stroke="#EEEEEE" stroke-width="1.34012"></rect><rect x="-0.670061" y="0.670061" width="65.666" height="65.666" transform="matrix(-1 0 0 1 1183.33 262.665)" stroke="#EEEEEE" stroke-width="1.34012"></rect><rect x="-0.670061" y="0.670061" width="65.666" height="65.666" transform="matrix(-1 0 0 1 1117.66 262.665)" stroke="#EEEEEE" stroke-width="1.34012"></rect><rect x="-0.670061" y="0.670061" width="65.666" height="65.666" transform="matrix(-1 0 0 1 1052 262.665)" stroke="#EEEEEE" stroke-width="1.34012"></rect><rect x="-0.670061" y="0.670061" width="65.666" height="65.666" transform="matrix(-1 0 0 1 986.33 262.665)" stroke="#EEEEEE" stroke-width="1.34012"></rect><rect x="-0.670061" y="0.670061" width="65.666" height="65.666" transform="matrix(-1 0 0 1 920.664 262.665)" stroke="#EEEEEE" stroke-width="1.34012"></rect><rect x="-0.670061" y="0.670061" width="65.666" height="65.666" transform="matrix(-1 0 0 1 854.998 262.665)" stroke="#EEEEEE" stroke-width="1.34012"></rect><rect x="-0.670061" y="0.670061" width="65.666" height="65.666" transform="matrix(-1 0 0 1 789.332 262.665)" stroke="#EEEEEE" stroke-width="1.34012"></rect><rect x="-0.670061" y="0.670061" width="65.666" height="65.666" transform="matrix(-1 0 0 1 723.666 262.665)" stroke="#EEEEEE" stroke-width="1.34012"></rect><rect width="658" height="67.0061" transform="matrix(-1 0 0 1 1316 328.329)" fill="white"></rect><rect x="-0.670061" y="0.670061" width="65.666" height="65.666" transform="matrix(-1 0 0 1 1314.66 328.329)" stroke="#EEEEEE" stroke-width="1.34012"></rect><rect x="-0.670061" y="0.670061" width="65.666" height="65.666" transform="matrix(-1 0 0 1 1248.99 328.329)" stroke="#EEEEEE" stroke-width="1.34012"></rect><rect x="-0.670061" y="0.670061" width="65.666" height="65.666" transform="matrix(-1 0 0 1 1183.33 328.329)" stroke="#EEEEEE" stroke-width="1.34012"></rect><rect x="-0.670061" y="0.670061" width="65.666" height="65.666" transform="matrix(-1 0 0 1 1117.66 328.329)" stroke="#EEEEEE" stroke-width="1.34012"></rect><rect x="-0.670061" y="0.670061" width="65.666" height="65.666" transform="matrix(-1 0 0 1 1052 328.329)" stroke="#EEEEEE" stroke-width="1.34012"></rect><rect x="-0.670061" y="0.670061" width="65.666" height="65.666" transform="matrix(-1 0 0 1 986.33 328.329)" stroke="#EEEEEE" stroke-width="1.34012"></rect><rect x="-0.670061" y="0.670061" width="65.666" height="65.666" transform="matrix(-1 0 0 1 920.664 328.329)" stroke="#EEEEEE" stroke-width="1.34012"></rect><rect x="-0.670061" y="0.670061" width="65.666" height="65.666" transform="matrix(-1 0 0 1 854.998 328.329)" stroke="#EEEEEE" stroke-width="1.34012"></rect><rect x="-0.670061" y="0.670061" width="65.666" height="65.666" transform="matrix(-1 0 0 1 789.332 328.329)" stroke="#EEEEEE" stroke-width="1.34012"></rect><rect x="-0.670061" y="0.670061" width="65.666" height="65.666" transform="matrix(-1 0 0 1 723.666 328.329)" stroke="#EEEEEE" stroke-width="1.34012"></rect><rect width="658" height="67.0061" transform="matrix(-1 0 0 1 1316 393.997)" fill="white"></rect><rect x="-0.670061" y="0.670061" width="65.666" height="65.666" transform="matrix(-1 0 0 1 1314.66 393.997)" stroke="#EEEEEE" stroke-width="1.34012"></rect><rect x="-0.670061" y="0.670061" width="65.666" height="65.666" transform="matrix(-1 0 0 1 1248.99 393.997)" stroke="#EEEEEE" stroke-width="1.34012"></rect><rect x="-0.670061" y="0.670061" width="65.666" height="65.666" transform="matrix(-1 0 0 1 1183.33 393.997)" stroke="#EEEEEE" stroke-width="1.34012"></rect><rect x="-0.670061" y="0.670061" width="65.666" height="65.666" transform="matrix(-1 0 0 1 1117.66 393.997)" stroke="#EEEEEE" stroke-width="1.34012"></rect><rect x="-0.670061" y="0.670061" width="65.666" height="65.666" transform="matrix(-1 0 0 1 1052 393.997)" stroke="#EEEEEE" stroke-width="1.34012"></rect><rect x="-0.670061" y="0.670061" width="65.666" height="65.666" transform="matrix(-1 0 0 1 986.33 393.997)" stroke="#EEEEEE" stroke-width="1.34012"></rect><rect x="-0.670061" y="0.670061" width="65.666" height="65.666" transform="matrix(-1 0 0 1 920.664 393.997)" stroke="#EEEEEE" stroke-width="1.34012"></rect><rect x="-0.670061" y="0.670061" width="65.666" height="65.666" transform="matrix(-1 0 0 1 854.998 393.997)" stroke="#EEEEEE" stroke-width="1.34012"></rect><rect x="-0.670061" y="0.670061" width="65.666" height="65.666" transform="matrix(-1 0 0 1 789.332 393.997)" stroke="#EEEEEE" stroke-width="1.34012"></rect><rect x="-0.670061" y="0.670061" width="65.666" height="65.666" transform="matrix(-1 0 0 1 723.666 393.997)" stroke="#EEEEEE" stroke-width="1.34012"></rect><rect width="658" height="67.0061" transform="matrix(-1 0 0 1 1316 459.661)" fill="white"></rect><rect x="-0.670061" y="0.670061" width="65.666" height="65.666" transform="matrix(-1 0 0 1 1314.66 459.661)" stroke="#EEEEEE" stroke-width="1.34012"></rect><rect x="-0.670061" y="0.670061" width="65.666" height="65.666" transform="matrix(-1 0 0 1 1248.99 459.661)" stroke="#EEEEEE" stroke-width="1.34012"></rect><rect x="-0.670061" y="0.670061" width="65.666" height="65.666" transform="matrix(-1 0 0 1 1183.33 459.661)" stroke="#EEEEEE" stroke-width="1.34012"></rect><rect x="-0.670061" y="0.670061" width="65.666" height="65.666" transform="matrix(-1 0 0 1 1117.66 459.661)" stroke="#EEEEEE" stroke-width="1.34012"></rect><rect x="-0.670061" y="0.670061" width="65.666" height="65.666" transform="matrix(-1 0 0 1 1052 459.661)" stroke="#EEEEEE" stroke-width="1.34012"></rect><rect x="-0.670061" y="0.670061" width="65.666" height="65.666" transform="matrix(-1 0 0 1 986.33 459.661)" stroke="#EEEEEE" stroke-width="1.34012"></rect><rect x="-0.670061" y="0.670061" width="65.666" height="65.666" transform="matrix(-1 0 0 1 920.664 459.661)" stroke="#EEEEEE" stroke-width="1.34012"></rect><rect x="-0.670061" y="0.670061" width="65.666" height="65.666" transform="matrix(-1 0 0 1 854.998 459.661)" stroke="#EEEEEE" stroke-width="1.34012"></rect><rect x="-0.670061" y="0.670061" width="65.666" height="65.666" transform="matrix(-1 0 0 1 789.332 459.661)" stroke="#EEEEEE" stroke-width="1.34012"></rect><rect x="-0.670061" y="0.670061" width="65.666" height="65.666" transform="matrix(-1 0 0 1 723.666 459.661)" stroke="#EEEEEE" stroke-width="1.34012"></rect><rect width="658" height="67.0061" transform="matrix(-1 0 0 1 1316 525.329)" fill="white"></rect><rect x="-0.670061" y="0.670061" width="65.666" height="65.666" transform="matrix(-1 0 0 1 1314.66 525.329)" stroke="#EEEEEE" stroke-width="1.34012"></rect><rect x="-0.670061" y="0.670061" width="65.666" height="65.666" transform="matrix(-1 0 0 1 1248.99 525.329)" stroke="#EEEEEE" stroke-width="1.34012"></rect><rect x="-0.670061" y="0.670061" width="65.666" height="65.666" transform="matrix(-1 0 0 1 1183.33 525.329)" stroke="#EEEEEE" stroke-width="1.34012"></rect><rect x="-0.670061" y="0.670061" width="65.666" height="65.666" transform="matrix(-1 0 0 1 1117.66 525.329)" stroke="#EEEEEE" stroke-width="1.34012"></rect><rect x="-0.670061" y="0.670061" width="65.666" height="65.666" transform="matrix(-1 0 0 1 1052 525.329)" stroke="#EEEEEE" stroke-width="1.34012"></rect><rect x="-0.670061" y="0.670061" width="65.666" height="65.666" transform="matrix(-1 0 0 1 986.33 525.329)" stroke="#EEEEEE" stroke-width="1.34012"></rect><rect x="-0.670061" y="0.670061" width="65.666" height="65.666" transform="matrix(-1 0 0 1 920.664 525.329)" stroke="#EEEEEE" stroke-width="1.34012"></rect><rect x="-0.670061" y="0.670061" width="65.666" height="65.666" transform="matrix(-1 0 0 1 854.998 525.329)" stroke="#EEEEEE" stroke-width="1.34012"></rect><rect x="-0.670061" y="0.670061" width="65.666" height="65.666" transform="matrix(-1 0 0 1 789.332 525.329)" stroke="#EEEEEE" stroke-width="1.34012"></rect><rect x="-0.670061" y="0.670061" width="65.666" height="65.666" transform="matrix(-1 0 0 1 723.666 525.329)" stroke="#EEEEEE" stroke-width="1.34012"></rect><rect width="658" height="67.0061" transform="matrix(-1 0 0 1 1316 590.993)" fill="white"></rect><rect x="-0.670061" y="0.670061" width="65.666" height="65.666" transform="matrix(-1 0 0 1 1314.66 590.993)" stroke="#EEEEEE" stroke-width="1.34012"></rect><rect x="-0.670061" y="0.670061" width="65.666" height="65.666" transform="matrix(-1 0 0 1 1248.99 590.993)" stroke="#EEEEEE" stroke-width="1.34012"></rect><rect x="-0.670061" y="0.670061" width="65.666" height="65.666" transform="matrix(-1 0 0 1 1183.33 590.993)" stroke="#EEEEEE" stroke-width="1.34012"></rect><rect x="-0.670061" y="0.670061" width="65.666" height="65.666" transform="matrix(-1 0 0 1 1117.66 590.993)" stroke="#EEEEEE" stroke-width="1.34012"></rect><rect x="-0.670061" y="0.670061" width="65.666" height="65.666" transform="matrix(-1 0 0 1 1052 590.993)" stroke="#EEEEEE" stroke-width="1.34012"></rect><rect x="-0.670061" y="0.670061" width="65.666" height="65.666" transform="matrix(-1 0 0 1 986.33 590.993)" stroke="#EEEEEE" stroke-width="1.34012"></rect><rect x="-0.670061" y="0.670061" width="65.666" height="65.666" transform="matrix(-1 0 0 1 920.664 590.993)" stroke="#EEEEEE" stroke-width="1.34012"></rect><rect x="-0.670061" y="0.670061" width="65.666" height="65.666" transform="matrix(-1 0 0 1 854.998 590.993)" stroke="#EEEEEE" stroke-width="1.34012"></rect><rect x="-0.670061" y="0.670061" width="65.666" height="65.666" transform="matrix(-1 0 0 1 789.332 590.993)" stroke="#EEEEEE" stroke-width="1.34012"></rect><rect x="-0.670061" y="0.670061" width="65.666" height="65.666" transform="matrix(-1 0 0 1 723.666 590.993)" stroke="#EEEEEE" stroke-width="1.34012"></rect><rect width="658" height="67.0061" transform="matrix(-1 0 0 1 659.81 0)" fill="white"></rect><rect x="-0.670061" y="0.670061" width="65.666" height="65.666" transform="matrix(-1 0 0 1 658.47 0)" stroke="#EEEEEE" stroke-width="1.34012"></rect><rect x="-0.670061" y="0.670061" width="65.666" height="65.666" transform="matrix(-1 0 0 1 592.804 0)" stroke="#EEEEEE" stroke-width="1.34012"></rect><rect x="-0.670061" y="0.670061" width="65.666" height="65.666" transform="matrix(-1 0 0 1 527.138 0)" stroke="#EEEEEE" stroke-width="1.34012"></rect><rect x="-0.670061" y="0.670061" width="65.666" height="65.666" transform="matrix(-1 0 0 1 461.472 0)" stroke="#EEEEEE" stroke-width="1.34012"></rect><rect x="-0.670061" y="0.670061" width="65.666" height="65.666" transform="matrix(-1 0 0 1 395.806 0)" stroke="#EEEEEE" stroke-width="1.34012"></rect><rect x="-0.670061" y="0.670061" width="65.666" height="65.666" transform="matrix(-1 0 0 1 330.14 0)" stroke="#EEEEEE" stroke-width="1.34012"></rect><rect x="-0.670061" y="0.670061" width="65.666" height="65.666" transform="matrix(-1 0 0 1 264.474 0)" stroke="#EEEEEE" stroke-width="1.34012"></rect><rect x="-0.670061" y="0.670061" width="65.666" height="65.666" transform="matrix(-1 0 0 1 198.808 0)" stroke="#EEEEEE" stroke-width="1.34012"></rect><rect x="-0.670061" y="0.670061" width="65.666" height="65.666" transform="matrix(-1 0 0 1 133.142 0)" stroke="#EEEEEE" stroke-width="1.34012"></rect><rect x="-0.670061" y="0.670061" width="65.666" height="65.666" transform="matrix(-1 0 0 1 67.4762 0)" stroke="#EEEEEE" stroke-width="1.34012"></rect><rect width="658" height="67.0061" transform="matrix(-1 0 0 1 659.81 65.6679)" fill="white"></rect><rect x="-0.670061" y="0.670061" width="65.666" height="65.666" transform="matrix(-1 0 0 1 658.47 65.6679)" stroke="#EEEEEE" stroke-width="1.34012"></rect><rect x="-0.670061" y="0.670061" width="65.666" height="65.666" transform="matrix(-1 0 0 1 592.804 65.6679)" stroke="#EEEEEE" stroke-width="1.34012"></rect><rect x="-0.670061" y="0.670061" width="65.666" height="65.666" transform="matrix(-1 0 0 1 527.138 65.6678)" stroke="#EEEEEE" stroke-width="1.34012"></rect><rect x="-0.670061" y="0.670061" width="65.666" height="65.666" transform="matrix(-1 0 0 1 461.472 65.6678)" stroke="#EEEEEE" stroke-width="1.34012"></rect><rect x="-0.670061" y="0.670061" width="65.666" height="65.666" transform="matrix(-1 0 0 1 395.806 65.6679)" stroke="#EEEEEE" stroke-width="1.34012"></rect><rect x="-0.670061" y="0.670061" width="65.666" height="65.666" transform="matrix(-1 0 0 1 330.14 65.6678)" stroke="#EEEEEE" stroke-width="1.34012"></rect><rect x="-0.670061" y="0.670061" width="65.666" height="65.666" transform="matrix(-1 0 0 1 264.474 65.6678)" stroke="#EEEEEE" stroke-width="1.34012"></rect><rect x="-0.670061" y="0.670061" width="65.666" height="65.666" transform="matrix(-1 0 0 1 198.808 65.6679)" stroke="#EEEEEE" stroke-width="1.34012"></rect><rect x="-0.670061" y="0.670061" width="65.666" height="65.666" transform="matrix(-1 0 0 1 133.142 65.6679)" stroke="#EEEEEE" stroke-width="1.34012"></rect><rect x="-0.670061" y="0.670061" width="65.666" height="65.666" transform="matrix(-1 0 0 1 67.476 65.6678)" stroke="#EEEEEE" stroke-width="1.34012"></rect><rect width="658" height="67.0061" transform="matrix(-1 0 0 1 659.81 131.332)" fill="white"></rect><rect x="-0.670061" y="0.670061" width="65.666" height="65.666" transform="matrix(-1 0 0 1 658.47 131.332)" stroke="#EEEEEE" stroke-width="1.34012"></rect><rect x="-0.670061" y="0.670061" width="65.666" height="65.666" transform="matrix(-1 0 0 1 592.804 131.332)" stroke="#EEEEEE" stroke-width="1.34012"></rect><rect x="-0.670061" y="0.670061" width="65.666" height="65.666" transform="matrix(-1 0 0 1 527.138 131.332)" stroke="#EEEEEE" stroke-width="1.34012"></rect><rect x="-0.670061" y="0.670061" width="65.666" height="65.666" transform="matrix(-1 0 0 1 461.472 131.332)" stroke="#EEEEEE" stroke-width="1.34012"></rect><rect x="-0.670061" y="0.670061" width="65.666" height="65.666" transform="matrix(-1 0 0 1 395.806 131.332)" stroke="#EEEEEE" stroke-width="1.34012"></rect><rect x="-0.670061" y="0.670061" width="65.666" height="65.666" transform="matrix(-1 0 0 1 330.14 131.332)" stroke="#EEEEEE" stroke-width="1.34012"></rect><rect x="-0.670061" y="0.670061" width="65.666" height="65.666" transform="matrix(-1 0 0 1 264.474 131.332)" stroke="#EEEEEE" stroke-width="1.34012"></rect><rect x="-0.670061" y="0.670061" width="65.666" height="65.666" transform="matrix(-1 0 0 1 198.808 131.332)" stroke="#EEEEEE" stroke-width="1.34012"></rect><rect x="-0.670061" y="0.670061" width="65.666" height="65.666" transform="matrix(-1 0 0 1 133.142 131.332)" stroke="#EEEEEE" stroke-width="1.34012"></rect><rect x="-0.670061" y="0.670061" width="65.666" height="65.666" transform="matrix(-1 0 0 1 67.476 131.332)" stroke="#EEEEEE" stroke-width="1.34012"></rect><rect width="658" height="67.0061" transform="matrix(-1 0 0 1 659.81 196.997)" fill="white"></rect><rect x="-0.670061" y="0.670061" width="65.666" height="65.666" transform="matrix(-1 0 0 1 658.47 196.997)" stroke="#EEEEEE" stroke-width="1.34012"></rect><rect x="-0.670061" y="0.670061" width="65.666" height="65.666" transform="matrix(-1 0 0 1 592.804 196.997)" stroke="#EEEEEE" stroke-width="1.34012"></rect><rect x="-0.670061" y="0.670061" width="65.666" height="65.666" transform="matrix(-1 0 0 1 527.138 196.997)" stroke="#EEEEEE" stroke-width="1.34012"></rect><rect x="-0.670061" y="0.670061" width="65.666" height="65.666" transform="matrix(-1 0 0 1 461.472 196.997)" stroke="#EEEEEE" stroke-width="1.34012"></rect><rect x="-0.670061" y="0.670061" width="65.666" height="65.666" transform="matrix(-1 0 0 1 395.806 196.997)" stroke="#EEEEEE" stroke-width="1.34012"></rect><rect x="-0.670061" y="0.670061" width="65.666" height="65.666" transform="matrix(-1 0 0 1 330.14 196.997)" stroke="#EEEEEE" stroke-width="1.34012"></rect><rect x="-0.670061" y="0.670061" width="65.666" height="65.666" transform="matrix(-1 0 0 1 264.474 196.997)" stroke="#EEEEEE" stroke-width="1.34012"></rect><rect x="-0.670061" y="0.670061" width="65.666" height="65.666" transform="matrix(-1 0 0 1 198.808 196.997)" stroke="#EEEEEE" stroke-width="1.34012"></rect><rect x="-0.670061" y="0.670061" width="65.666" height="65.666" transform="matrix(-1 0 0 1 133.142 196.997)" stroke="#EEEEEE" stroke-width="1.34012"></rect><rect x="-0.670061" y="0.670061" width="65.666" height="65.666" transform="matrix(-1 0 0 1 67.476 196.997)" stroke="#EEEEEE" stroke-width="1.34012"></rect><rect width="658" height="67.0061" transform="matrix(-1 0 0 1 659.81 262.665)" fill="white"></rect><rect x="-0.670061" y="0.670061" width="65.666" height="65.666" transform="matrix(-1 0 0 1 658.47 262.665)" stroke="#EEEEEE" stroke-width="1.34012"></rect><rect x="-0.670061" y="0.670061" width="65.666" height="65.666" transform="matrix(-1 0 0 1 592.804 262.665)" stroke="#EEEEEE" stroke-width="1.34012"></rect><rect x="-0.670061" y="0.670061" width="65.666" height="65.666" transform="matrix(-1 0 0 1 527.138 262.665)" stroke="#EEEEEE" stroke-width="1.34012"></rect><rect x="-0.670061" y="0.670061" width="65.666" height="65.666" transform="matrix(-1 0 0 1 461.472 262.665)" stroke="#EEEEEE" stroke-width="1.34012"></rect><rect x="-0.670061" y="0.670061" width="65.666" height="65.666" transform="matrix(-1 0 0 1 395.806 262.665)" stroke="#EEEEEE" stroke-width="1.34012"></rect><rect x="-0.670061" y="0.670061" width="65.666" height="65.666" transform="matrix(-1 0 0 1 330.14 262.665)" stroke="#EEEEEE" stroke-width="1.34012"></rect><rect x="-0.670061" y="0.670061" width="65.666" height="65.666" transform="matrix(-1 0 0 1 264.474 262.665)" stroke="#EEEEEE" stroke-width="1.34012"></rect><rect x="-0.670061" y="0.670061" width="65.666" height="65.666" transform="matrix(-1 0 0 1 198.808 262.665)" stroke="#EEEEEE" stroke-width="1.34012"></rect><rect x="-0.670061" y="0.670061" width="65.666" height="65.666" transform="matrix(-1 0 0 1 133.142 262.665)" stroke="#EEEEEE" stroke-width="1.34012"></rect><rect x="-0.670061" y="0.670061" width="65.666" height="65.666" transform="matrix(-1 0 0 1 67.476 262.665)" stroke="#EEEEEE" stroke-width="1.34012"></rect><rect width="658" height="67.0061" transform="matrix(-1 0 0 1 659.81 328.329)" fill="white"></rect><rect x="-0.670061" y="0.670061" width="65.666" height="65.666" transform="matrix(-1 0 0 1 658.47 328.329)" stroke="#EEEEEE" stroke-width="1.34012"></rect><rect x="-0.670061" y="0.670061" width="65.666" height="65.666" transform="matrix(-1 0 0 1 592.804 328.329)" stroke="#EEEEEE" stroke-width="1.34012"></rect><rect x="-0.670061" y="0.670061" width="65.666" height="65.666" transform="matrix(-1 0 0 1 527.138 328.329)" stroke="#EEEEEE" stroke-width="1.34012"></rect><rect x="-0.670061" y="0.670061" width="65.666" height="65.666" transform="matrix(-1 0 0 1 461.472 328.329)" stroke="#EEEEEE" stroke-width="1.34012"></rect><rect x="-0.670061" y="0.670061" width="65.666" height="65.666" transform="matrix(-1 0 0 1 395.806 328.329)" stroke="#EEEEEE" stroke-width="1.34012"></rect><rect x="-0.670061" y="0.670061" width="65.666" height="65.666" transform="matrix(-1 0 0 1 330.14 328.329)" stroke="#EEEEEE" stroke-width="1.34012"></rect><rect x="-0.670061" y="0.670061" width="65.666" height="65.666" transform="matrix(-1 0 0 1 264.474 328.329)" stroke="#EEEEEE" stroke-width="1.34012"></rect><rect x="-0.670061" y="0.670061" width="65.666" height="65.666" transform="matrix(-1 0 0 1 198.808 328.329)" stroke="#EEEEEE" stroke-width="1.34012"></rect><rect x="-0.670061" y="0.670061" width="65.666" height="65.666" transform="matrix(-1 0 0 1 133.142 328.329)" stroke="#EEEEEE" stroke-width="1.34012"></rect><rect x="-0.670061" y="0.670061" width="65.666" height="65.666" transform="matrix(-1 0 0 1 67.476 328.329)" stroke="#EEEEEE" stroke-width="1.34012"></rect><rect width="658" height="67.0061" transform="matrix(-1 0 0 1 659.81 393.997)" fill="white"></rect><rect x="-0.670061" y="0.670061" width="65.666" height="65.666" transform="matrix(-1 0 0 1 658.47 393.997)" stroke="#EEEEEE" stroke-width="1.34012"></rect><rect x="-0.670061" y="0.670061" width="65.666" height="65.666" transform="matrix(-1 0 0 1 592.804 393.997)" stroke="#EEEEEE" stroke-width="1.34012"></rect><rect x="-0.670061" y="0.670061" width="65.666" height="65.666" transform="matrix(-1 0 0 1 527.138 393.997)" stroke="#EEEEEE" stroke-width="1.34012"></rect><rect x="-0.670061" y="0.670061" width="65.666" height="65.666" transform="matrix(-1 0 0 1 461.472 393.997)" stroke="#EEEEEE" stroke-width="1.34012"></rect><rect x="-0.670061" y="0.670061" width="65.666" height="65.666" transform="matrix(-1 0 0 1 395.806 393.997)" stroke="#EEEEEE" stroke-width="1.34012"></rect><rect x="-0.670061" y="0.670061" width="65.666" height="65.666" transform="matrix(-1 0 0 1 330.14 393.997)" stroke="#EEEEEE" stroke-width="1.34012"></rect><rect x="-0.670061" y="0.670061" width="65.666" height="65.666" transform="matrix(-1 0 0 1 264.474 393.997)" stroke="#EEEEEE" stroke-width="1.34012"></rect><rect x="-0.670061" y="0.670061" width="65.666" height="65.666" transform="matrix(-1 0 0 1 198.808 393.997)" stroke="#EEEEEE" stroke-width="1.34012"></rect><rect x="-0.670061" y="0.670061" width="65.666" height="65.666" transform="matrix(-1 0 0 1 133.142 393.997)" stroke="#EEEEEE" stroke-width="1.34012"></rect><rect x="-0.670061" y="0.670061" width="65.666" height="65.666" transform="matrix(-1 0 0 1 67.476 393.997)" stroke="#EEEEEE" stroke-width="1.34012"></rect><rect width="658" height="67.0061" transform="matrix(-1 0 0 1 659.81 459.661)" fill="white"></rect><rect x="-0.670061" y="0.670061" width="65.666" height="65.666" transform="matrix(-1 0 0 1 658.47 459.661)" stroke="#EEEEEE" stroke-width="1.34012"></rect><rect x="-0.670061" y="0.670061" width="65.666" height="65.666" transform="matrix(-1 0 0 1 592.804 459.661)" stroke="#EEEEEE" stroke-width="1.34012"></rect><rect x="-0.670061" y="0.670061" width="65.666" height="65.666" transform="matrix(-1 0 0 1 527.138 459.661)" stroke="#EEEEEE" stroke-width="1.34012"></rect><rect x="-0.670061" y="0.670061" width="65.666" height="65.666" transform="matrix(-1 0 0 1 461.472 459.661)" stroke="#EEEEEE" stroke-width="1.34012"></rect><rect x="-0.670061" y="0.670061" width="65.666" height="65.666" transform="matrix(-1 0 0 1 395.806 459.661)" stroke="#EEEEEE" stroke-width="1.34012"></rect><rect x="-0.670061" y="0.670061" width="65.666" height="65.666" transform="matrix(-1 0 0 1 330.14 459.661)" stroke="#EEEEEE" stroke-width="1.34012"></rect><rect x="-0.670061" y="0.670061" width="65.666" height="65.666" transform="matrix(-1 0 0 1 264.474 459.661)" stroke="#EEEEEE" stroke-width="1.34012"></rect><rect x="-0.670061" y="0.670061" width="65.666" height="65.666" transform="matrix(-1 0 0 1 198.808 459.661)" stroke="#EEEEEE" stroke-width="1.34012"></rect><rect x="-0.670061" y="0.670061" width="65.666" height="65.666" transform="matrix(-1 0 0 1 133.142 459.661)" stroke="#EEEEEE" stroke-width="1.34012"></rect><rect x="-0.670061" y="0.670061" width="65.666" height="65.666" transform="matrix(-1 0 0 1 67.476 459.661)" stroke="#EEEEEE" stroke-width="1.34012"></rect><rect width="658" height="67.0061" transform="matrix(-1 0 0 1 659.81 525.329)" fill="white"></rect><rect x="-0.670061" y="0.670061" width="65.666" height="65.666" transform="matrix(-1 0 0 1 658.47 525.329)" stroke="#EEEEEE" stroke-width="1.34012"></rect><rect x="-0.670061" y="0.670061" width="65.666" height="65.666" transform="matrix(-1 0 0 1 592.804 525.329)" stroke="#EEEEEE" stroke-width="1.34012"></rect><rect x="-0.670061" y="0.670061" width="65.666" height="65.666" transform="matrix(-1 0 0 1 527.138 525.329)" stroke="#EEEEEE" stroke-width="1.34012"></rect><rect x="-0.670061" y="0.670061" width="65.666" height="65.666" transform="matrix(-1 0 0 1 461.472 525.329)" stroke="#EEEEEE" stroke-width="1.34012"></rect><rect x="-0.670061" y="0.670061" width="65.666" height="65.666" transform="matrix(-1 0 0 1 395.806 525.329)" stroke="#EEEEEE" stroke-width="1.34012"></rect><rect x="-0.670061" y="0.670061" width="65.666" height="65.666" transform="matrix(-1 0 0 1 330.14 525.329)" stroke="#EEEEEE" stroke-width="1.34012"></rect><rect x="-0.670061" y="0.670061" width="65.666" height="65.666" transform="matrix(-1 0 0 1 264.474 525.329)" stroke="#EEEEEE" stroke-width="1.34012"></rect><rect x="-0.670061" y="0.670061" width="65.666" height="65.666" transform="matrix(-1 0 0 1 198.808 525.329)" stroke="#EEEEEE" stroke-width="1.34012"></rect><rect x="-0.670061" y="0.670061" width="65.666" height="65.666" transform="matrix(-1 0 0 1 133.142 525.329)" stroke="#EEEEEE" stroke-width="1.34012"></rect><rect x="-0.670061" y="0.670061" width="65.666" height="65.666" transform="matrix(-1 0 0 1 67.476 525.329)" stroke="#EEEEEE" stroke-width="1.34012"></rect><rect width="658" height="67.0061" transform="matrix(-1 0 0 1 659.81 590.993)" fill="white"></rect><rect x="-0.670061" y="0.670061" width="65.666" height="65.666" transform="matrix(-1 0 0 1 658.47 590.993)" stroke="#EEEEEE" stroke-width="1.34012"></rect><rect x="-0.670061" y="0.670061" width="65.666" height="65.666" transform="matrix(-1 0 0 1 592.804 590.993)" stroke="#EEEEEE" stroke-width="1.34012"></rect><rect x="-0.670061" y="0.670061" width="65.666" height="65.666" transform="matrix(-1 0 0 1 527.138 590.993)" stroke="#EEEEEE" stroke-width="1.34012"></rect><rect x="-0.670061" y="0.670061" width="65.666" height="65.666" transform="matrix(-1 0 0 1 461.472 590.993)" stroke="#EEEEEE" stroke-width="1.34012"></rect><rect x="-0.670061" y="0.670061" width="65.666" height="65.666" transform="matrix(-1 0 0 1 395.806 590.993)" stroke="#EEEEEE" stroke-width="1.34012"></rect><rect x="-0.670061" y="0.670061" width="65.666" height="65.666" transform="matrix(-1 0 0 1 330.14 590.993)" stroke="#EEEEEE" stroke-width="1.34012"></rect><rect x="-0.670061" y="0.670061" width="65.666" height="65.666" transform="matrix(-1 0 0 1 264.474 590.993)" stroke="#EEEEEE" stroke-width="1.34012"></rect><rect x="-0.670061" y="0.670061" width="65.666" height="65.666" transform="matrix(-1 0 0 1 198.808 590.993)" stroke="#EEEEEE" stroke-width="1.34012"></rect><rect x="-0.670061" y="0.670061" width="65.666" height="65.666" transform="matrix(-1 0 0 1 133.142 590.993)" stroke="#EEEEEE" stroke-width="1.34012"></rect><rect x="-0.670061" y="0.670061" width="65.666" height="65.666" transform="matrix(-1 0 0 1 67.476 590.993)" stroke="#EEEEEE" stroke-width="1.34012"></rect><path d="M0 0H1316V658H0V0Z" fill="url(#paint0_radial_633_7005)"></path></g><defs><radialGradient id="paint0_radial_633_7005" cx="0" cy="0" r="1" gradientUnits="userSpaceOnUse" gradientTransform="translate(658 329) rotate(90) scale(329 658)"><stop offset="0.333333" stop-color="white" stop-opacity="0"></stop><stop offset="1" stop-color="white"></stop></radialGradient><clipPath id="clip0_633_7005"><rect width="1316" height="658" fill="white" transform="matrix(-1 0 0 1 1316 0)"></rect></clipPath></defs></svg>